<mxfile host="app.diagrams.net" modified="2023-09-02T13:02:57.645Z" agent="Mozilla/5.0 (Windows NT 10.0; Win64; x64) AppleWebKit/537.36 (KHTML, like Gecko) Chrome/116.0.0.0 Safari/537.36" etag="wTT2re83s0yMyx_tVQUg" version="21.6.9" type="device">
  <diagram id="C5RBs43oDa-KdzZeNtuy" name="Page-1">
    <mxGraphModel dx="5436" dy="2538" grid="1" gridSize="10" guides="1" tooltips="1" connect="1" arrows="1" fold="1" page="1" pageScale="1" pageWidth="827" pageHeight="1169" math="0" shadow="0">
      <root>
        <mxCell id="WIyWlLk6GJQsqaUBKTNV-0" />
        <mxCell id="WIyWlLk6GJQsqaUBKTNV-1" parent="WIyWlLk6GJQsqaUBKTNV-0" />
        <mxCell id="Cyv1DPju3obVMaO8v18J-0" value="Airport" style="swimlane;fontStyle=2;align=center;verticalAlign=top;childLayout=stackLayout;horizontal=1;startSize=26;horizontalStack=0;resizeParent=1;resizeLast=0;collapsible=1;marginBottom=0;rounded=0;shadow=0;strokeWidth=1;" vertex="1" parent="WIyWlLk6GJQsqaUBKTNV-1">
          <mxGeometry x="3440" y="849" width="500" height="320" as="geometry">
            <mxRectangle x="270" y="700" width="160" height="26" as="alternateBounds" />
          </mxGeometry>
        </mxCell>
        <mxCell id="Cyv1DPju3obVMaO8v18J-1" value="- mCity : City" style="text;align=left;verticalAlign=top;spacingLeft=4;spacingRight=4;overflow=hidden;rotatable=0;points=[[0,0.5],[1,0.5]];portConstraint=eastwest;" vertex="1" parent="Cyv1DPju3obVMaO8v18J-0">
          <mxGeometry y="26" width="500" height="26" as="geometry" />
        </mxCell>
        <mxCell id="Cyv1DPju3obVMaO8v18J-2" value="- mName : std::string" style="text;align=left;verticalAlign=top;spacingLeft=4;spacingRight=4;overflow=hidden;rotatable=0;points=[[0,0.5],[1,0.5]];portConstraint=eastwest;rounded=0;shadow=0;html=0;" vertex="1" parent="Cyv1DPju3obVMaO8v18J-0">
          <mxGeometry y="52" width="500" height="26" as="geometry" />
        </mxCell>
        <mxCell id="Cyv1DPju3obVMaO8v18J-3" value="- mCode : std::string" style="text;align=left;verticalAlign=top;spacingLeft=4;spacingRight=4;overflow=hidden;rotatable=0;points=[[0,0.5],[1,0.5]];portConstraint=eastwest;rounded=0;shadow=0;html=0;" vertex="1" parent="Cyv1DPju3obVMaO8v18J-0">
          <mxGeometry y="78" width="500" height="26" as="geometry" />
        </mxCell>
        <mxCell id="Cyv1DPju3obVMaO8v18J-8" value="- mCoordinate : std::pair&lt;double,double&gt;" style="text;align=left;verticalAlign=top;spacingLeft=4;spacingRight=4;overflow=hidden;rotatable=0;points=[[0,0.5],[1,0.5]];portConstraint=eastwest;rounded=0;shadow=0;html=0;" vertex="1" parent="Cyv1DPju3obVMaO8v18J-0">
          <mxGeometry y="104" width="500" height="26" as="geometry" />
        </mxCell>
        <mxCell id="Cyv1DPju3obVMaO8v18J-9" value="- mAltitude : double" style="text;align=left;verticalAlign=top;spacingLeft=4;spacingRight=4;overflow=hidden;rotatable=0;points=[[0,0.5],[1,0.5]];portConstraint=eastwest;rounded=0;shadow=0;html=0;" vertex="1" parent="Cyv1DPju3obVMaO8v18J-0">
          <mxGeometry y="130" width="500" height="26" as="geometry" />
        </mxCell>
        <mxCell id="Cyv1DPju3obVMaO8v18J-10" value="- mAirportsRoads : std::vector&lt;AirlineRoad&gt;" style="text;align=left;verticalAlign=top;spacingLeft=4;spacingRight=4;overflow=hidden;rotatable=0;points=[[0,0.5],[1,0.5]];portConstraint=eastwest;rounded=0;shadow=0;html=0;" vertex="1" parent="Cyv1DPju3obVMaO8v18J-0">
          <mxGeometry y="156" width="500" height="26" as="geometry" />
        </mxCell>
        <mxCell id="Cyv1DPju3obVMaO8v18J-4" value="" style="line;html=1;strokeWidth=1;align=left;verticalAlign=middle;spacingTop=-1;spacingLeft=3;spacingRight=3;rotatable=0;labelPosition=right;points=[];portConstraint=eastwest;" vertex="1" parent="Cyv1DPju3obVMaO8v18J-0">
          <mxGeometry y="182" width="500" height="8" as="geometry" />
        </mxCell>
        <mxCell id="Cyv1DPju3obVMaO8v18J-5" value="+ const getCity() : City" style="text;align=left;verticalAlign=top;spacingLeft=4;spacingRight=4;overflow=hidden;rotatable=0;points=[[0,0.5],[1,0.5]];portConstraint=eastwest;" vertex="1" parent="Cyv1DPju3obVMaO8v18J-0">
          <mxGeometry y="190" width="500" height="26" as="geometry" />
        </mxCell>
        <mxCell id="Cyv1DPju3obVMaO8v18J-11" value="+ const getName() : std::string" style="text;align=left;verticalAlign=top;spacingLeft=4;spacingRight=4;overflow=hidden;rotatable=0;points=[[0,0.5],[1,0.5]];portConstraint=eastwest;" vertex="1" parent="Cyv1DPju3obVMaO8v18J-0">
          <mxGeometry y="216" width="500" height="26" as="geometry" />
        </mxCell>
        <mxCell id="Cyv1DPju3obVMaO8v18J-12" value="+ const getCode() : std::string" style="text;align=left;verticalAlign=top;spacingLeft=4;spacingRight=4;overflow=hidden;rotatable=0;points=[[0,0.5],[1,0.5]];portConstraint=eastwest;" vertex="1" parent="Cyv1DPju3obVMaO8v18J-0">
          <mxGeometry y="242" width="500" height="26" as="geometry" />
        </mxCell>
        <mxCell id="Cyv1DPju3obVMaO8v18J-13" value="+ const getCoordinate() : std::pair&lt;double,double&gt;" style="text;align=left;verticalAlign=top;spacingLeft=4;spacingRight=4;overflow=hidden;rotatable=0;points=[[0,0.5],[1,0.5]];portConstraint=eastwest;" vertex="1" parent="Cyv1DPju3obVMaO8v18J-0">
          <mxGeometry y="268" width="500" height="26" as="geometry" />
        </mxCell>
        <mxCell id="Cyv1DPju3obVMaO8v18J-14" value="+ const getAltitude() : double " style="text;align=left;verticalAlign=top;spacingLeft=4;spacingRight=4;overflow=hidden;rotatable=0;points=[[0,0.5],[1,0.5]];portConstraint=eastwest;" vertex="1" parent="Cyv1DPju3obVMaO8v18J-0">
          <mxGeometry y="294" width="500" height="26" as="geometry" />
        </mxCell>
        <mxCell id="Cyv1DPju3obVMaO8v18J-28" value="AirlineRoad" style="swimlane;fontStyle=2;align=center;verticalAlign=top;childLayout=stackLayout;horizontal=1;startSize=26;horizontalStack=0;resizeParent=1;resizeLast=0;collapsible=1;marginBottom=0;rounded=0;shadow=0;strokeWidth=1;" vertex="1" parent="WIyWlLk6GJQsqaUBKTNV-1">
          <mxGeometry x="4370" y="910" width="500" height="190" as="geometry">
            <mxRectangle x="270" y="700" width="160" height="26" as="alternateBounds" />
          </mxGeometry>
        </mxCell>
        <mxCell id="Cyv1DPju3obVMaO8v18J-29" value="- mOrder : unsigned short" style="text;align=left;verticalAlign=top;spacingLeft=4;spacingRight=4;overflow=hidden;rotatable=0;points=[[0,0.5],[1,0.5]];portConstraint=eastwest;" vertex="1" parent="Cyv1DPju3obVMaO8v18J-28">
          <mxGeometry y="26" width="500" height="26" as="geometry" />
        </mxCell>
        <mxCell id="Cyv1DPju3obVMaO8v18J-30" value="- mBegin : std::pair&lt;double,double&gt;" style="text;align=left;verticalAlign=top;spacingLeft=4;spacingRight=4;overflow=hidden;rotatable=0;points=[[0,0.5],[1,0.5]];portConstraint=eastwest;rounded=0;shadow=0;html=0;" vertex="1" parent="Cyv1DPju3obVMaO8v18J-28">
          <mxGeometry y="52" width="500" height="26" as="geometry" />
        </mxCell>
        <mxCell id="Cyv1DPju3obVMaO8v18J-31" value="- mEnd : std::pair&lt;double,double&gt;" style="text;align=left;verticalAlign=top;spacingLeft=4;spacingRight=4;overflow=hidden;rotatable=0;points=[[0,0.5],[1,0.5]];portConstraint=eastwest;rounded=0;shadow=0;html=0;" vertex="1" parent="Cyv1DPju3obVMaO8v18J-28">
          <mxGeometry y="78" width="500" height="26" as="geometry" />
        </mxCell>
        <mxCell id="Cyv1DPju3obVMaO8v18J-35" value="" style="line;html=1;strokeWidth=1;align=left;verticalAlign=middle;spacingTop=-1;spacingLeft=3;spacingRight=3;rotatable=0;labelPosition=right;points=[];portConstraint=eastwest;" vertex="1" parent="Cyv1DPju3obVMaO8v18J-28">
          <mxGeometry y="104" width="500" height="8" as="geometry" />
        </mxCell>
        <mxCell id="Cyv1DPju3obVMaO8v18J-36" value="+ const getOrder() : unsigned short" style="text;align=left;verticalAlign=top;spacingLeft=4;spacingRight=4;overflow=hidden;rotatable=0;points=[[0,0.5],[1,0.5]];portConstraint=eastwest;" vertex="1" parent="Cyv1DPju3obVMaO8v18J-28">
          <mxGeometry y="112" width="500" height="26" as="geometry" />
        </mxCell>
        <mxCell id="Cyv1DPju3obVMaO8v18J-37" value="+ const getLength() : std::string" style="text;align=left;verticalAlign=top;spacingLeft=4;spacingRight=4;overflow=hidden;rotatable=0;points=[[0,0.5],[1,0.5]];portConstraint=eastwest;" vertex="1" parent="Cyv1DPju3obVMaO8v18J-28">
          <mxGeometry y="138" width="500" height="26" as="geometry" />
        </mxCell>
        <mxCell id="Cyv1DPju3obVMaO8v18J-38" value="+ const getAngle() : std::string" style="text;align=left;verticalAlign=top;spacingLeft=4;spacingRight=4;overflow=hidden;rotatable=0;points=[[0,0.5],[1,0.5]];portConstraint=eastwest;" vertex="1" parent="Cyv1DPju3obVMaO8v18J-28">
          <mxGeometry y="164" width="500" height="26" as="geometry" />
        </mxCell>
        <mxCell id="Cyv1DPju3obVMaO8v18J-41" value="&lt;enumeration&gt;&#xa;AirplaneStatus" style="swimlane;fontStyle=2;align=center;verticalAlign=top;childLayout=stackLayout;horizontal=1;startSize=40;horizontalStack=0;resizeParent=1;resizeLast=0;collapsible=1;marginBottom=0;rounded=0;shadow=0;strokeWidth=1;" vertex="1" parent="WIyWlLk6GJQsqaUBKTNV-1">
          <mxGeometry x="4010" y="2168" width="500" height="170" as="geometry">
            <mxRectangle x="270" y="700" width="160" height="26" as="alternateBounds" />
          </mxGeometry>
        </mxCell>
        <mxCell id="Cyv1DPju3obVMaO8v18J-42" value="READY_TO_FLIGHT" style="text;align=left;verticalAlign=top;spacingLeft=4;spacingRight=4;overflow=hidden;rotatable=0;points=[[0,0.5],[1,0.5]];portConstraint=eastwest;" vertex="1" parent="Cyv1DPju3obVMaO8v18J-41">
          <mxGeometry y="40" width="500" height="26" as="geometry" />
        </mxCell>
        <mxCell id="Cyv1DPju3obVMaO8v18J-43" value="IN_FLIGHT" style="text;align=left;verticalAlign=top;spacingLeft=4;spacingRight=4;overflow=hidden;rotatable=0;points=[[0,0.5],[1,0.5]];portConstraint=eastwest;rounded=0;shadow=0;html=0;" vertex="1" parent="Cyv1DPju3obVMaO8v18J-41">
          <mxGeometry y="66" width="500" height="26" as="geometry" />
        </mxCell>
        <mxCell id="Cyv1DPju3obVMaO8v18J-44" value="NEED_AFTER_FLIGHT_MAINTANENCE" style="text;align=left;verticalAlign=top;spacingLeft=4;spacingRight=4;overflow=hidden;rotatable=0;points=[[0,0.5],[1,0.5]];portConstraint=eastwest;rounded=0;shadow=0;html=0;" vertex="1" parent="Cyv1DPju3obVMaO8v18J-41">
          <mxGeometry y="92" width="500" height="26" as="geometry" />
        </mxCell>
        <mxCell id="Cyv1DPju3obVMaO8v18J-50" value="NEED_ROUTINE_MAINTANENCE" style="text;align=left;verticalAlign=top;spacingLeft=4;spacingRight=4;overflow=hidden;rotatable=0;points=[[0,0.5],[1,0.5]];portConstraint=eastwest;rounded=0;shadow=0;html=0;" vertex="1" parent="Cyv1DPju3obVMaO8v18J-41">
          <mxGeometry y="118" width="500" height="26" as="geometry" />
        </mxCell>
        <mxCell id="Cyv1DPju3obVMaO8v18J-66" value="NEED_FULL_MAINTANENCE" style="text;align=left;verticalAlign=top;spacingLeft=4;spacingRight=4;overflow=hidden;rotatable=0;points=[[0,0.5],[1,0.5]];portConstraint=eastwest;rounded=0;shadow=0;html=0;" vertex="1" parent="Cyv1DPju3obVMaO8v18J-41">
          <mxGeometry y="144" width="500" height="26" as="geometry" />
        </mxCell>
        <mxCell id="Cyv1DPju3obVMaO8v18J-54" value="Airplane" style="swimlane;fontStyle=2;align=center;verticalAlign=top;childLayout=stackLayout;horizontal=1;startSize=26;horizontalStack=0;resizeParent=1;resizeLast=0;collapsible=1;marginBottom=0;rounded=0;shadow=0;strokeWidth=1;" vertex="1" parent="WIyWlLk6GJQsqaUBKTNV-1">
          <mxGeometry x="3270" y="1879" width="500" height="424" as="geometry">
            <mxRectangle x="270" y="700" width="160" height="26" as="alternateBounds" />
          </mxGeometry>
        </mxCell>
        <mxCell id="Cyv1DPju3obVMaO8v18J-55" value="- mIcaoCode : std::string" style="text;align=left;verticalAlign=top;spacingLeft=4;spacingRight=4;overflow=hidden;rotatable=0;points=[[0,0.5],[1,0.5]];portConstraint=eastwest;" vertex="1" parent="Cyv1DPju3obVMaO8v18J-54">
          <mxGeometry y="26" width="500" height="26" as="geometry" />
        </mxCell>
        <mxCell id="Cyv1DPju3obVMaO8v18J-56" value="- mIataCode : std::string" style="text;align=left;verticalAlign=top;spacingLeft=4;spacingRight=4;overflow=hidden;rotatable=0;points=[[0,0.5],[1,0.5]];portConstraint=eastwest;rounded=0;shadow=0;html=0;" vertex="1" parent="Cyv1DPju3obVMaO8v18J-54">
          <mxGeometry y="52" width="500" height="26" as="geometry" />
        </mxCell>
        <mxCell id="Cyv1DPju3obVMaO8v18J-57" value="- mAirplaneModelName : std::string" style="text;align=left;verticalAlign=top;spacingLeft=4;spacingRight=4;overflow=hidden;rotatable=0;points=[[0,0.5],[1,0.5]];portConstraint=eastwest;rounded=0;shadow=0;html=0;" vertex="1" parent="Cyv1DPju3obVMaO8v18J-54">
          <mxGeometry y="78" width="500" height="26" as="geometry" />
        </mxCell>
        <mxCell id="Cyv1DPju3obVMaO8v18J-58" value="- mLicencePlate : std::string" style="text;align=left;verticalAlign=top;spacingLeft=4;spacingRight=4;overflow=hidden;rotatable=0;points=[[0,0.5],[1,0.5]];portConstraint=eastwest;rounded=0;shadow=0;html=0;" vertex="1" parent="Cyv1DPju3obVMaO8v18J-54">
          <mxGeometry y="104" width="500" height="26" as="geometry" />
        </mxCell>
        <mxCell id="Cyv1DPju3obVMaO8v18J-59" value="- mSeats : std::map&lt;std::pair&lt;char,unsigned int&gt;, PassengerSeat&gt;" style="text;align=left;verticalAlign=top;spacingLeft=4;spacingRight=4;overflow=hidden;rotatable=0;points=[[0,0.5],[1,0.5]];portConstraint=eastwest;rounded=0;shadow=0;html=0;" vertex="1" parent="Cyv1DPju3obVMaO8v18J-54">
          <mxGeometry y="130" width="500" height="26" as="geometry" />
        </mxCell>
        <mxCell id="Cyv1DPju3obVMaO8v18J-60" value="- mPilots : std::map&lt;std::pair&lt;char,unsigned int&gt;, bool [](const PilotWorker&amp;)&gt;" style="text;align=left;verticalAlign=top;spacingLeft=4;spacingRight=4;overflow=hidden;rotatable=0;points=[[0,0.5],[1,0.5]];portConstraint=eastwest;rounded=0;shadow=0;html=0;" vertex="1" parent="Cyv1DPju3obVMaO8v18J-54">
          <mxGeometry y="156" width="500" height="26" as="geometry" />
        </mxCell>
        <mxCell id="Cyv1DPju3obVMaO8v18J-61" value="- mCrew : std::vector&lt;std::tuple&lt;std::string, bool, bool [](const CrewWorker&amp;)&gt;&gt;" style="text;align=left;verticalAlign=top;spacingLeft=4;spacingRight=4;overflow=hidden;rotatable=0;points=[[0,0.5],[1,0.5]];portConstraint=eastwest;rounded=0;shadow=0;html=0;" vertex="1" parent="Cyv1DPju3obVMaO8v18J-54">
          <mxGeometry y="182" width="500" height="26" as="geometry" />
        </mxCell>
        <mxCell id="Cyv1DPju3obVMaO8v18J-244" value="- mAirplaneStatus : AirplaneStatus" style="text;align=left;verticalAlign=top;spacingLeft=4;spacingRight=4;overflow=hidden;rotatable=0;points=[[0,0.5],[1,0.5]];portConstraint=eastwest;rounded=0;shadow=0;html=0;" vertex="1" parent="Cyv1DPju3obVMaO8v18J-54">
          <mxGeometry y="208" width="500" height="26" as="geometry" />
        </mxCell>
        <mxCell id="Cyv1DPju3obVMaO8v18J-245" value="- mFuelVolume : double" style="text;align=left;verticalAlign=top;spacingLeft=4;spacingRight=4;overflow=hidden;rotatable=0;points=[[0,0.5],[1,0.5]];portConstraint=eastwest;rounded=0;shadow=0;html=0;" vertex="1" parent="Cyv1DPju3obVMaO8v18J-54">
          <mxGeometry y="234" width="500" height="26" as="geometry" />
        </mxCell>
        <mxCell id="Cyv1DPju3obVMaO8v18J-246" value="- mCurrentCity : std::optional&lt;City&gt;" style="text;align=left;verticalAlign=top;spacingLeft=4;spacingRight=4;overflow=hidden;rotatable=0;points=[[0,0.5],[1,0.5]];portConstraint=eastwest;rounded=0;shadow=0;html=0;" vertex="1" parent="Cyv1DPju3obVMaO8v18J-54">
          <mxGeometry y="260" width="500" height="26" as="geometry" />
        </mxCell>
        <mxCell id="Cyv1DPju3obVMaO8v18J-62" value="" style="line;html=1;strokeWidth=1;align=left;verticalAlign=middle;spacingTop=-1;spacingLeft=3;spacingRight=3;rotatable=0;labelPosition=right;points=[];portConstraint=eastwest;" vertex="1" parent="Cyv1DPju3obVMaO8v18J-54">
          <mxGeometry y="286" width="500" height="8" as="geometry" />
        </mxCell>
        <mxCell id="Cyv1DPju3obVMaO8v18J-243" value="- mLicencePlate : std::string" style="text;align=left;verticalAlign=top;spacingLeft=4;spacingRight=4;overflow=hidden;rotatable=0;points=[[0,0.5],[1,0.5]];portConstraint=eastwest;rounded=0;shadow=0;html=0;" vertex="1" parent="Cyv1DPju3obVMaO8v18J-54">
          <mxGeometry y="294" width="500" height="26" as="geometry" />
        </mxCell>
        <mxCell id="Cyv1DPju3obVMaO8v18J-63" value="+ getSeat(std::pair&lt;char, unsigned int&gt; seatNumber) : PassengerSeat " style="text;align=left;verticalAlign=top;spacingLeft=4;spacingRight=4;overflow=hidden;rotatable=0;points=[[0,0.5],[1,0.5]];portConstraint=eastwest;" vertex="1" parent="Cyv1DPju3obVMaO8v18J-54">
          <mxGeometry y="320" width="500" height="26" as="geometry" />
        </mxCell>
        <mxCell id="Cyv1DPju3obVMaO8v18J-64" value="+ const getPilotSeats() : const std::vector&lt;std::tuple&lt;std::string, bool, RequirementPilot&gt;&gt;" style="text;align=left;verticalAlign=top;spacingLeft=4;spacingRight=4;overflow=hidden;rotatable=0;points=[[0,0.5],[1,0.5]];portConstraint=eastwest;" vertex="1" parent="Cyv1DPju3obVMaO8v18J-54">
          <mxGeometry y="346" width="500" height="26" as="geometry" />
        </mxCell>
        <mxCell id="Cyv1DPju3obVMaO8v18J-65" value="+ const getCrewSeats() : const  std::vector&lt;std::tuple&lt;std::string, bool, RequirementCrewWorker&gt;&gt;" style="text;align=left;verticalAlign=top;spacingLeft=4;spacingRight=4;overflow=hidden;rotatable=0;points=[[0,0.5],[1,0.5]];portConstraint=eastwest;" vertex="1" parent="Cyv1DPju3obVMaO8v18J-54">
          <mxGeometry y="372" width="500" height="26" as="geometry" />
        </mxCell>
        <mxCell id="Cyv1DPju3obVMaO8v18J-248" value="+ const getAirplaneStatus() : AirplaneStatus" style="text;align=left;verticalAlign=top;spacingLeft=4;spacingRight=4;overflow=hidden;rotatable=0;points=[[0,0.5],[1,0.5]];portConstraint=eastwest;rounded=0;shadow=0;html=0;" vertex="1" parent="Cyv1DPju3obVMaO8v18J-54">
          <mxGeometry y="398" width="500" height="26" as="geometry" />
        </mxCell>
        <mxCell id="Cyv1DPju3obVMaO8v18J-68" value="PassengerSeat" style="swimlane;fontStyle=2;align=center;verticalAlign=top;childLayout=stackLayout;horizontal=1;startSize=26;horizontalStack=0;resizeParent=1;resizeLast=0;collapsible=1;marginBottom=0;rounded=0;shadow=0;strokeWidth=1;" vertex="1" parent="WIyWlLk6GJQsqaUBKTNV-1">
          <mxGeometry x="3170" y="2630" width="500" height="140" as="geometry">
            <mxRectangle x="270" y="700" width="160" height="26" as="alternateBounds" />
          </mxGeometry>
        </mxCell>
        <mxCell id="Cyv1DPju3obVMaO8v18J-69" value="- mSeatType : PassengerSeatType" style="text;align=left;verticalAlign=top;spacingLeft=4;spacingRight=4;overflow=hidden;rotatable=0;points=[[0,0.5],[1,0.5]];portConstraint=eastwest;" vertex="1" parent="Cyv1DPju3obVMaO8v18J-68">
          <mxGeometry y="26" width="500" height="26" as="geometry" />
        </mxCell>
        <mxCell id="Cyv1DPju3obVMaO8v18J-70" value="- mRequiredEmergencyInform : bool" style="text;align=left;verticalAlign=top;spacingLeft=4;spacingRight=4;overflow=hidden;rotatable=0;points=[[0,0.5],[1,0.5]];portConstraint=eastwest;rounded=0;shadow=0;html=0;" vertex="1" parent="Cyv1DPju3obVMaO8v18J-68">
          <mxGeometry y="52" width="500" height="26" as="geometry" />
        </mxCell>
        <mxCell id="Cyv1DPju3obVMaO8v18J-71" value="- mOrder : unsigned short" style="text;align=left;verticalAlign=top;spacingLeft=4;spacingRight=4;overflow=hidden;rotatable=0;points=[[0,0.5],[1,0.5]];portConstraint=eastwest;rounded=0;shadow=0;html=0;" vertex="1" parent="Cyv1DPju3obVMaO8v18J-68">
          <mxGeometry y="78" width="500" height="26" as="geometry" />
        </mxCell>
        <mxCell id="Cyv1DPju3obVMaO8v18J-76" value="" style="line;html=1;strokeWidth=1;align=left;verticalAlign=middle;spacingTop=-1;spacingLeft=3;spacingRight=3;rotatable=0;labelPosition=right;points=[];portConstraint=eastwest;" vertex="1" parent="Cyv1DPju3obVMaO8v18J-68">
          <mxGeometry y="104" width="500" height="8" as="geometry" />
        </mxCell>
        <mxCell id="Cyv1DPju3obVMaO8v18J-77" value="+ const getOrder() : const unsigned short" style="text;align=left;verticalAlign=top;spacingLeft=4;spacingRight=4;overflow=hidden;rotatable=0;points=[[0,0.5],[1,0.5]];portConstraint=eastwest;" vertex="1" parent="Cyv1DPju3obVMaO8v18J-68">
          <mxGeometry y="112" width="500" height="26" as="geometry" />
        </mxCell>
        <mxCell id="Cyv1DPju3obVMaO8v18J-80" value="&lt;enumeration&gt;&#xa;PassengerSeatType" style="swimlane;fontStyle=2;align=center;verticalAlign=top;childLayout=stackLayout;horizontal=1;startSize=40;horizontalStack=0;resizeParent=1;resizeLast=0;collapsible=1;marginBottom=0;rounded=0;shadow=0;strokeWidth=1;" vertex="1" parent="WIyWlLk6GJQsqaUBKTNV-1">
          <mxGeometry x="4010" y="1889" width="500" height="120" as="geometry">
            <mxRectangle x="270" y="700" width="160" height="26" as="alternateBounds" />
          </mxGeometry>
        </mxCell>
        <mxCell id="Cyv1DPju3obVMaO8v18J-81" value="UNDEFINED_SEAT" style="text;align=left;verticalAlign=top;spacingLeft=4;spacingRight=4;overflow=hidden;rotatable=0;points=[[0,0.5],[1,0.5]];portConstraint=eastwest;" vertex="1" parent="Cyv1DPju3obVMaO8v18J-80">
          <mxGeometry y="40" width="500" height="26" as="geometry" />
        </mxCell>
        <mxCell id="Cyv1DPju3obVMaO8v18J-82" value="ECO" style="text;align=left;verticalAlign=top;spacingLeft=4;spacingRight=4;overflow=hidden;rotatable=0;points=[[0,0.5],[1,0.5]];portConstraint=eastwest;rounded=0;shadow=0;html=0;" vertex="1" parent="Cyv1DPju3obVMaO8v18J-80">
          <mxGeometry y="66" width="500" height="26" as="geometry" />
        </mxCell>
        <mxCell id="Cyv1DPju3obVMaO8v18J-83" value="BUS" style="text;align=left;verticalAlign=top;spacingLeft=4;spacingRight=4;overflow=hidden;rotatable=0;points=[[0,0.5],[1,0.5]];portConstraint=eastwest;rounded=0;shadow=0;html=0;" vertex="1" parent="Cyv1DPju3obVMaO8v18J-80">
          <mxGeometry y="92" width="500" height="26" as="geometry" />
        </mxCell>
        <mxCell id="Cyv1DPju3obVMaO8v18J-86" value="MaintenceTeamRequirements" style="swimlane;fontStyle=2;align=center;verticalAlign=top;childLayout=stackLayout;horizontal=1;startSize=26;horizontalStack=0;resizeParent=1;resizeLast=0;collapsible=1;marginBottom=0;rounded=0;shadow=0;strokeWidth=1;" vertex="1" parent="WIyWlLk6GJQsqaUBKTNV-1">
          <mxGeometry x="940" y="2703" width="500" height="220" as="geometry">
            <mxRectangle x="270" y="700" width="160" height="26" as="alternateBounds" />
          </mxGeometry>
        </mxCell>
        <mxCell id="Cyv1DPju3obVMaO8v18J-87" value="+ AFTER_FLIGHT_MAINTANCE : static const MaintenceTeamRequirements" style="text;align=left;verticalAlign=top;spacingLeft=4;spacingRight=4;overflow=hidden;rotatable=0;points=[[0,0.5],[1,0.5]];portConstraint=eastwest;" vertex="1" parent="Cyv1DPju3obVMaO8v18J-86">
          <mxGeometry y="26" width="500" height="26" as="geometry" />
        </mxCell>
        <mxCell id="Cyv1DPju3obVMaO8v18J-99" value="+ ROUTINE_MAINTANENCE: static const MaintenceTeamRequirements" style="text;align=left;verticalAlign=top;spacingLeft=4;spacingRight=4;overflow=hidden;rotatable=0;points=[[0,0.5],[1,0.5]];portConstraint=eastwest;" vertex="1" parent="Cyv1DPju3obVMaO8v18J-86">
          <mxGeometry y="52" width="500" height="26" as="geometry" />
        </mxCell>
        <mxCell id="Cyv1DPju3obVMaO8v18J-100" value="+ FULL_MAINTANENCE: static const MaintenceTeamRequirements" style="text;align=left;verticalAlign=top;spacingLeft=4;spacingRight=4;overflow=hidden;rotatable=0;points=[[0,0.5],[1,0.5]];portConstraint=eastwest;" vertex="1" parent="Cyv1DPju3obVMaO8v18J-86">
          <mxGeometry y="78" width="500" height="26" as="geometry" />
        </mxCell>
        <mxCell id="Cyv1DPju3obVMaO8v18J-98" value="- mRepairAuthorization : AirplaneStatus" style="text;align=left;verticalAlign=top;spacingLeft=4;spacingRight=4;overflow=hidden;rotatable=0;points=[[0,0.5],[1,0.5]];portConstraint=eastwest;" vertex="1" parent="Cyv1DPju3obVMaO8v18J-86">
          <mxGeometry y="104" width="500" height="26" as="geometry" />
        </mxCell>
        <mxCell id="Cyv1DPju3obVMaO8v18J-88" value="- mTeamReqirements : std::vector&lt;std::tuple&lt;std::string, bool, bool [](const MaintenceTeam&amp;)&gt;&gt;" style="text;align=left;verticalAlign=top;spacingLeft=4;spacingRight=4;overflow=hidden;rotatable=0;points=[[0,0.5],[1,0.5]];portConstraint=eastwest;rounded=0;shadow=0;html=0;" vertex="1" parent="Cyv1DPju3obVMaO8v18J-86">
          <mxGeometry y="130" width="500" height="26" as="geometry" />
        </mxCell>
        <mxCell id="Cyv1DPju3obVMaO8v18J-94" value="" style="line;html=1;strokeWidth=1;align=left;verticalAlign=middle;spacingTop=-1;spacingLeft=3;spacingRight=3;rotatable=0;labelPosition=right;points=[];portConstraint=eastwest;" vertex="1" parent="Cyv1DPju3obVMaO8v18J-86">
          <mxGeometry y="156" width="500" height="8" as="geometry" />
        </mxCell>
        <mxCell id="Cyv1DPju3obVMaO8v18J-95" value="+ const isValidWorker(unsigned short, MaintenanceWorker) : bool " style="text;align=left;verticalAlign=top;spacingLeft=4;spacingRight=4;overflow=hidden;rotatable=0;points=[[0,0.5],[1,0.5]];portConstraint=eastwest;" vertex="1" parent="Cyv1DPju3obVMaO8v18J-86">
          <mxGeometry y="164" width="500" height="26" as="geometry" />
        </mxCell>
        <mxCell id="Cyv1DPju3obVMaO8v18J-101" value="+ const getTeamRequirements(unsigned short, MaintenanceWorker) : std::vector&lt;std::tuple&lt;std::string, bool, RequirementTeam&gt;&gt;" style="text;align=left;verticalAlign=top;spacingLeft=4;spacingRight=4;overflow=hidden;rotatable=0;points=[[0,0.5],[1,0.5]];portConstraint=eastwest;" vertex="1" parent="Cyv1DPju3obVMaO8v18J-86">
          <mxGeometry y="190" width="500" height="26" as="geometry" />
        </mxCell>
        <mxCell id="Cyv1DPju3obVMaO8v18J-252" style="edgeStyle=orthogonalEdgeStyle;rounded=0;orthogonalLoop=1;jettySize=auto;html=1;entryX=0.507;entryY=1.016;entryDx=0;entryDy=0;entryPerimeter=0;" edge="1" parent="WIyWlLk6GJQsqaUBKTNV-1" source="Cyv1DPju3obVMaO8v18J-103" target="Cyv1DPju3obVMaO8v18J-169">
          <mxGeometry relative="1" as="geometry" />
        </mxCell>
        <mxCell id="Cyv1DPju3obVMaO8v18J-103" value="MaintenceTeam" style="swimlane;fontStyle=2;align=center;verticalAlign=top;childLayout=stackLayout;horizontal=1;startSize=26;horizontalStack=0;resizeParent=1;resizeLast=0;collapsible=1;marginBottom=0;rounded=0;shadow=0;strokeWidth=1;" vertex="1" parent="WIyWlLk6GJQsqaUBKTNV-1">
          <mxGeometry x="340" y="2338" width="500" height="220" as="geometry">
            <mxRectangle x="270" y="700" width="160" height="26" as="alternateBounds" />
          </mxGeometry>
        </mxCell>
        <mxCell id="Cyv1DPju3obVMaO8v18J-107" value="- mRequirements : MaintenceTeamRequirements" style="text;align=left;verticalAlign=top;spacingLeft=4;spacingRight=4;overflow=hidden;rotatable=0;points=[[0,0.5],[1,0.5]];portConstraint=eastwest;" vertex="1" parent="Cyv1DPju3obVMaO8v18J-103">
          <mxGeometry y="26" width="500" height="26" as="geometry" />
        </mxCell>
        <mxCell id="Cyv1DPju3obVMaO8v18J-112" value="- mAirPlaneStatus : AirplaneStatus" style="text;align=left;verticalAlign=top;spacingLeft=4;spacingRight=4;overflow=hidden;rotatable=0;points=[[0,0.5],[1,0.5]];portConstraint=eastwest;" vertex="1" parent="Cyv1DPju3obVMaO8v18J-103">
          <mxGeometry y="52" width="500" height="26" as="geometry" />
        </mxCell>
        <mxCell id="Cyv1DPju3obVMaO8v18J-113" value="- mLocation : Airport" style="text;align=left;verticalAlign=top;spacingLeft=4;spacingRight=4;overflow=hidden;rotatable=0;points=[[0,0.5],[1,0.5]];portConstraint=eastwest;" vertex="1" parent="Cyv1DPju3obVMaO8v18J-103">
          <mxGeometry y="78" width="500" height="26" as="geometry" />
        </mxCell>
        <mxCell id="Cyv1DPju3obVMaO8v18J-114" value="- mTeam: std::map&lt;unsigned short,MaintenanceWorker&gt;" style="text;align=left;verticalAlign=top;spacingLeft=4;spacingRight=4;overflow=hidden;rotatable=0;points=[[0,0.5],[1,0.5]];portConstraint=eastwest;" vertex="1" parent="Cyv1DPju3obVMaO8v18J-103">
          <mxGeometry y="104" width="500" height="26" as="geometry" />
        </mxCell>
        <mxCell id="Cyv1DPju3obVMaO8v18J-109" value="" style="line;html=1;strokeWidth=1;align=left;verticalAlign=middle;spacingTop=-1;spacingLeft=3;spacingRight=3;rotatable=0;labelPosition=right;points=[];portConstraint=eastwest;" vertex="1" parent="Cyv1DPju3obVMaO8v18J-103">
          <mxGeometry y="130" width="500" height="8" as="geometry" />
        </mxCell>
        <mxCell id="Cyv1DPju3obVMaO8v18J-110" value="+ const isValid() : bool" style="text;align=left;verticalAlign=top;spacingLeft=4;spacingRight=4;overflow=hidden;rotatable=0;points=[[0,0.5],[1,0.5]];portConstraint=eastwest;" vertex="1" parent="Cyv1DPju3obVMaO8v18J-103">
          <mxGeometry y="138" width="500" height="26" as="geometry" />
        </mxCell>
        <mxCell id="Cyv1DPju3obVMaO8v18J-115" value="+ repairAirplane(Airplane&amp; airplane) : bool" style="text;align=left;verticalAlign=top;spacingLeft=4;spacingRight=4;overflow=hidden;rotatable=0;points=[[0,0.5],[1,0.5]];portConstraint=eastwest;" vertex="1" parent="Cyv1DPju3obVMaO8v18J-103">
          <mxGeometry y="164" width="500" height="26" as="geometry" />
        </mxCell>
        <mxCell id="Cyv1DPju3obVMaO8v18J-116" value="+ addTeam(size_t taskIndex, MaintenanceWorker&amp; worker) : bool" style="text;align=left;verticalAlign=top;spacingLeft=4;spacingRight=4;overflow=hidden;rotatable=0;points=[[0,0.5],[1,0.5]];portConstraint=eastwest;" vertex="1" parent="Cyv1DPju3obVMaO8v18J-103">
          <mxGeometry y="190" width="500" height="26" as="geometry" />
        </mxCell>
        <mxCell id="Cyv1DPju3obVMaO8v18J-117" value="Route" style="swimlane;fontStyle=2;align=center;verticalAlign=top;childLayout=stackLayout;horizontal=1;startSize=26;horizontalStack=0;resizeParent=1;resizeLast=0;collapsible=1;marginBottom=0;rounded=0;shadow=0;strokeWidth=1;" vertex="1" parent="WIyWlLk6GJQsqaUBKTNV-1">
          <mxGeometry x="2400" y="1840" width="500" height="450" as="geometry">
            <mxRectangle x="270" y="700" width="160" height="26" as="alternateBounds" />
          </mxGeometry>
        </mxCell>
        <mxCell id="Cyv1DPju3obVMaO8v18J-118" value="- mFrom : Airport " style="text;align=left;verticalAlign=top;spacingLeft=4;spacingRight=4;overflow=hidden;rotatable=0;points=[[0,0.5],[1,0.5]];portConstraint=eastwest;" vertex="1" parent="Cyv1DPju3obVMaO8v18J-117">
          <mxGeometry y="26" width="500" height="26" as="geometry" />
        </mxCell>
        <mxCell id="Cyv1DPju3obVMaO8v18J-119" value="- mTo : Airport" style="text;align=left;verticalAlign=top;spacingLeft=4;spacingRight=4;overflow=hidden;rotatable=0;points=[[0,0.5],[1,0.5]];portConstraint=eastwest;rounded=0;shadow=0;html=0;" vertex="1" parent="Cyv1DPju3obVMaO8v18J-117">
          <mxGeometry y="52" width="500" height="26" as="geometry" />
        </mxCell>
        <mxCell id="Cyv1DPju3obVMaO8v18J-120" value="- mFromAirportRoadOrder: unsigned short" style="text;align=left;verticalAlign=top;spacingLeft=4;spacingRight=4;overflow=hidden;rotatable=0;points=[[0,0.5],[1,0.5]];portConstraint=eastwest;rounded=0;shadow=0;html=0;" vertex="1" parent="Cyv1DPju3obVMaO8v18J-117">
          <mxGeometry y="78" width="500" height="26" as="geometry" />
        </mxCell>
        <mxCell id="Cyv1DPju3obVMaO8v18J-121" value="- mToAirportRoadOrder: unsigned short " style="text;align=left;verticalAlign=top;spacingLeft=4;spacingRight=4;overflow=hidden;rotatable=0;points=[[0,0.5],[1,0.5]];portConstraint=eastwest;rounded=0;shadow=0;html=0;" vertex="1" parent="Cyv1DPju3obVMaO8v18J-117">
          <mxGeometry y="104" width="500" height="26" as="geometry" />
        </mxCell>
        <mxCell id="Cyv1DPju3obVMaO8v18J-122" value="- mAirplane: Airplane" style="text;align=left;verticalAlign=top;spacingLeft=4;spacingRight=4;overflow=hidden;rotatable=0;points=[[0,0.5],[1,0.5]];portConstraint=eastwest;rounded=0;shadow=0;html=0;" vertex="1" parent="Cyv1DPju3obVMaO8v18J-117">
          <mxGeometry y="130" width="500" height="26" as="geometry" />
        </mxCell>
        <mxCell id="Cyv1DPju3obVMaO8v18J-123" value="- mPassengers: std::map&lt;PassengerSeat, std::optional&lt;Passenger&gt;&gt;" style="text;align=left;verticalAlign=top;spacingLeft=4;spacingRight=4;overflow=hidden;rotatable=0;points=[[0,0.5],[1,0.5]];portConstraint=eastwest;rounded=0;shadow=0;html=0;" vertex="1" parent="Cyv1DPju3obVMaO8v18J-117">
          <mxGeometry y="156" width="500" height="26" as="geometry" />
        </mxCell>
        <mxCell id="Cyv1DPju3obVMaO8v18J-124" value="- mRoutePilots: std::map&lt;size_t, PilotWorker&gt;" style="text;align=left;verticalAlign=top;spacingLeft=4;spacingRight=4;overflow=hidden;rotatable=0;points=[[0,0.5],[1,0.5]];portConstraint=eastwest;rounded=0;shadow=0;html=0;" vertex="1" parent="Cyv1DPju3obVMaO8v18J-117">
          <mxGeometry y="182" width="500" height="26" as="geometry" />
        </mxCell>
        <mxCell id="Cyv1DPju3obVMaO8v18J-130" value="- mRouteCrews: std::map&lt;size_t, CrewWorker&gt;" style="text;align=left;verticalAlign=top;spacingLeft=4;spacingRight=4;overflow=hidden;rotatable=0;points=[[0,0.5],[1,0.5]];portConstraint=eastwest;rounded=0;shadow=0;html=0;" vertex="1" parent="Cyv1DPju3obVMaO8v18J-117">
          <mxGeometry y="208" width="500" height="26" as="geometry" />
        </mxCell>
        <mxCell id="Cyv1DPju3obVMaO8v18J-125" value="" style="line;html=1;strokeWidth=1;align=left;verticalAlign=middle;spacingTop=-1;spacingLeft=3;spacingRight=3;rotatable=0;labelPosition=right;points=[];portConstraint=eastwest;" vertex="1" parent="Cyv1DPju3obVMaO8v18J-117">
          <mxGeometry y="234" width="500" height="8" as="geometry" />
        </mxCell>
        <mxCell id="Cyv1DPju3obVMaO8v18J-132" value="+ getFrom() : Airport" style="text;align=left;verticalAlign=top;spacingLeft=4;spacingRight=4;overflow=hidden;rotatable=0;points=[[0,0.5],[1,0.5]];portConstraint=eastwest;" vertex="1" parent="Cyv1DPju3obVMaO8v18J-117">
          <mxGeometry y="242" width="500" height="26" as="geometry" />
        </mxCell>
        <mxCell id="Cyv1DPju3obVMaO8v18J-131" value="+ getTo() : Airport" style="text;align=left;verticalAlign=top;spacingLeft=4;spacingRight=4;overflow=hidden;rotatable=0;points=[[0,0.5],[1,0.5]];portConstraint=eastwest;" vertex="1" parent="Cyv1DPju3obVMaO8v18J-117">
          <mxGeometry y="268" width="500" height="26" as="geometry" />
        </mxCell>
        <mxCell id="Cyv1DPju3obVMaO8v18J-126" value="+ getAllPassenger() : std::vector&lt;Passenger&gt;" style="text;align=left;verticalAlign=top;spacingLeft=4;spacingRight=4;overflow=hidden;rotatable=0;points=[[0,0.5],[1,0.5]];portConstraint=eastwest;" vertex="1" parent="Cyv1DPju3obVMaO8v18J-117">
          <mxGeometry y="294" width="500" height="26" as="geometry" />
        </mxCell>
        <mxCell id="Cyv1DPju3obVMaO8v18J-127" value="+ getPassenger(std::pair&lt;char,unsigned int&gt;) : std::optional&lt;Passenger&gt;" style="text;align=left;verticalAlign=top;spacingLeft=4;spacingRight=4;overflow=hidden;rotatable=0;points=[[0,0.5],[1,0.5]];portConstraint=eastwest;" vertex="1" parent="Cyv1DPju3obVMaO8v18J-117">
          <mxGeometry y="320" width="500" height="26" as="geometry" />
        </mxCell>
        <mxCell id="Cyv1DPju3obVMaO8v18J-128" value="+ addPassenger(std::pair&lt;char, unsigned int&gt;, Passenger) : bool" style="text;align=left;verticalAlign=top;spacingLeft=4;spacingRight=4;overflow=hidden;rotatable=0;points=[[0,0.5],[1,0.5]];portConstraint=eastwest;" vertex="1" parent="Cyv1DPju3obVMaO8v18J-117">
          <mxGeometry y="346" width="500" height="26" as="geometry" />
        </mxCell>
        <mxCell id="Cyv1DPju3obVMaO8v18J-133" value="+ addPilot(size_t, PilotWorker) : bool" style="text;align=left;verticalAlign=top;spacingLeft=4;spacingRight=4;overflow=hidden;rotatable=0;points=[[0,0.5],[1,0.5]];portConstraint=eastwest;" vertex="1" parent="Cyv1DPju3obVMaO8v18J-117">
          <mxGeometry y="372" width="500" height="26" as="geometry" />
        </mxCell>
        <mxCell id="Cyv1DPju3obVMaO8v18J-134" value="+ addCrew(size_t, CrewWorker) : bool" style="text;align=left;verticalAlign=top;spacingLeft=4;spacingRight=4;overflow=hidden;rotatable=0;points=[[0,0.5],[1,0.5]];portConstraint=eastwest;" vertex="1" parent="Cyv1DPju3obVMaO8v18J-117">
          <mxGeometry y="398" width="500" height="26" as="geometry" />
        </mxCell>
        <mxCell id="Cyv1DPju3obVMaO8v18J-135" value="+ isValid() : bool" style="text;align=left;verticalAlign=top;spacingLeft=4;spacingRight=4;overflow=hidden;rotatable=0;points=[[0,0.5],[1,0.5]];portConstraint=eastwest;" vertex="1" parent="Cyv1DPju3obVMaO8v18J-117">
          <mxGeometry y="424" width="500" height="26" as="geometry" />
        </mxCell>
        <mxCell id="Cyv1DPju3obVMaO8v18J-236" style="edgeStyle=orthogonalEdgeStyle;rounded=0;orthogonalLoop=1;jettySize=auto;html=1;entryX=0.72;entryY=1.021;entryDx=0;entryDy=0;entryPerimeter=0;" edge="1" parent="WIyWlLk6GJQsqaUBKTNV-1" source="Cyv1DPju3obVMaO8v18J-136" target="Cyv1DPju3obVMaO8v18J-193">
          <mxGeometry relative="1" as="geometry">
            <Array as="points">
              <mxPoint x="1960" y="1770" />
              <mxPoint x="880" y="1770" />
            </Array>
          </mxGeometry>
        </mxCell>
        <mxCell id="Cyv1DPju3obVMaO8v18J-136" value="Passenger" style="swimlane;fontStyle=2;align=center;verticalAlign=top;childLayout=stackLayout;horizontal=1;startSize=26;horizontalStack=0;resizeParent=1;resizeLast=0;collapsible=1;marginBottom=0;rounded=0;shadow=0;strokeWidth=1;" vertex="1" parent="WIyWlLk6GJQsqaUBKTNV-1">
          <mxGeometry x="1568" y="1886" width="500" height="164" as="geometry">
            <mxRectangle x="270" y="700" width="160" height="26" as="alternateBounds" />
          </mxGeometry>
        </mxCell>
        <mxCell id="Cyv1DPju3obVMaO8v18J-137" value="- mChildren : std::vector&lt;Passenger*&gt;" style="text;align=left;verticalAlign=top;spacingLeft=4;spacingRight=4;overflow=hidden;rotatable=0;points=[[0,0.5],[1,0.5]];portConstraint=eastwest;" vertex="1" parent="Cyv1DPju3obVMaO8v18J-136">
          <mxGeometry y="26" width="500" height="26" as="geometry" />
        </mxCell>
        <mxCell id="Cyv1DPju3obVMaO8v18J-138" value="- mPersonDetails : std::shared_ptr&lt;Person&gt;" style="text;align=left;verticalAlign=top;spacingLeft=4;spacingRight=4;overflow=hidden;rotatable=0;points=[[0,0.5],[1,0.5]];portConstraint=eastwest;rounded=0;shadow=0;html=0;" vertex="1" parent="Cyv1DPju3obVMaO8v18J-136">
          <mxGeometry y="52" width="500" height="26" as="geometry" />
        </mxCell>
        <mxCell id="Cyv1DPju3obVMaO8v18J-143" value="" style="line;html=1;strokeWidth=1;align=left;verticalAlign=middle;spacingTop=-1;spacingLeft=3;spacingRight=3;rotatable=0;labelPosition=right;points=[];portConstraint=eastwest;" vertex="1" parent="Cyv1DPju3obVMaO8v18J-136">
          <mxGeometry y="78" width="500" height="8" as="geometry" />
        </mxCell>
        <mxCell id="Cyv1DPju3obVMaO8v18J-144" value="+ const getPersonDetails() : City" style="text;align=left;verticalAlign=top;spacingLeft=4;spacingRight=4;overflow=hidden;rotatable=0;points=[[0,0.5],[1,0.5]];portConstraint=eastwest;" vertex="1" parent="Cyv1DPju3obVMaO8v18J-136">
          <mxGeometry y="86" width="500" height="26" as="geometry" />
        </mxCell>
        <mxCell id="Cyv1DPju3obVMaO8v18J-145" value="+ getPassengerType() : PassengerType" style="text;align=left;verticalAlign=top;spacingLeft=4;spacingRight=4;overflow=hidden;rotatable=0;points=[[0,0.5],[1,0.5]];portConstraint=eastwest;" vertex="1" parent="Cyv1DPju3obVMaO8v18J-136">
          <mxGeometry y="112" width="500" height="26" as="geometry" />
        </mxCell>
        <mxCell id="Cyv1DPju3obVMaO8v18J-146" value="+ addChild(Passenger* passenger) : bool" style="text;align=left;verticalAlign=top;spacingLeft=4;spacingRight=4;overflow=hidden;rotatable=0;points=[[0,0.5],[1,0.5]];portConstraint=eastwest;" vertex="1" parent="Cyv1DPju3obVMaO8v18J-136">
          <mxGeometry y="138" width="500" height="26" as="geometry" />
        </mxCell>
        <mxCell id="Cyv1DPju3obVMaO8v18J-232" style="edgeStyle=orthogonalEdgeStyle;rounded=0;orthogonalLoop=1;jettySize=auto;html=1;entryX=0.097;entryY=0.999;entryDx=0;entryDy=0;entryPerimeter=0;" edge="1" parent="WIyWlLk6GJQsqaUBKTNV-1" source="Cyv1DPju3obVMaO8v18J-149" target="Cyv1DPju3obVMaO8v18J-193">
          <mxGeometry relative="1" as="geometry" />
        </mxCell>
        <mxCell id="Cyv1DPju3obVMaO8v18J-149" value="CrewWorker" style="swimlane;fontStyle=2;align=center;verticalAlign=top;childLayout=stackLayout;horizontal=1;startSize=26;horizontalStack=0;resizeParent=1;resizeLast=0;collapsible=1;marginBottom=0;rounded=0;shadow=0;strokeWidth=1;" vertex="1" parent="WIyWlLk6GJQsqaUBKTNV-1">
          <mxGeometry x="-780" y="1886" width="500" height="138" as="geometry">
            <mxRectangle x="270" y="700" width="160" height="26" as="alternateBounds" />
          </mxGeometry>
        </mxCell>
        <mxCell id="Cyv1DPju3obVMaO8v18J-150" value="- mPerson : std::shared_ptr&lt;Person&gt;" style="text;align=left;verticalAlign=top;spacingLeft=4;spacingRight=4;overflow=hidden;rotatable=0;points=[[0,0.5],[1,0.5]];portConstraint=eastwest;" vertex="1" parent="Cyv1DPju3obVMaO8v18J-149">
          <mxGeometry y="26" width="500" height="26" as="geometry" />
        </mxCell>
        <mxCell id="Cyv1DPju3obVMaO8v18J-156" value="- mExperienceHours : unsigned int" style="text;align=left;verticalAlign=top;spacingLeft=4;spacingRight=4;overflow=hidden;rotatable=0;points=[[0,0.5],[1,0.5]];portConstraint=eastwest;" vertex="1" parent="Cyv1DPju3obVMaO8v18J-149">
          <mxGeometry y="52" width="500" height="26" as="geometry" />
        </mxCell>
        <mxCell id="Cyv1DPju3obVMaO8v18J-152" value="" style="line;html=1;strokeWidth=1;align=left;verticalAlign=middle;spacingTop=-1;spacingLeft=3;spacingRight=3;rotatable=0;labelPosition=right;points=[];portConstraint=eastwest;" vertex="1" parent="Cyv1DPju3obVMaO8v18J-149">
          <mxGeometry y="78" width="500" height="8" as="geometry" />
        </mxCell>
        <mxCell id="Cyv1DPju3obVMaO8v18J-157" value="+ const getExperienceHours(): unsigned int" style="text;align=left;verticalAlign=top;spacingLeft=4;spacingRight=4;overflow=hidden;rotatable=0;points=[[0,0.5],[1,0.5]];portConstraint=eastwest;" vertex="1" parent="Cyv1DPju3obVMaO8v18J-149">
          <mxGeometry y="86" width="500" height="26" as="geometry" />
        </mxCell>
        <mxCell id="Cyv1DPju3obVMaO8v18J-171" value="+ const getPersonDetails() : const Person*" style="text;align=left;verticalAlign=top;spacingLeft=4;spacingRight=4;overflow=hidden;rotatable=0;points=[[0,0.5],[1,0.5]];portConstraint=eastwest;" vertex="1" parent="Cyv1DPju3obVMaO8v18J-149">
          <mxGeometry y="112" width="500" height="26" as="geometry" />
        </mxCell>
        <mxCell id="Cyv1DPju3obVMaO8v18J-233" style="edgeStyle=orthogonalEdgeStyle;rounded=0;orthogonalLoop=1;jettySize=auto;html=1;entryX=0.254;entryY=1.021;entryDx=0;entryDy=0;entryPerimeter=0;" edge="1" parent="WIyWlLk6GJQsqaUBKTNV-1" source="Cyv1DPju3obVMaO8v18J-158" target="Cyv1DPju3obVMaO8v18J-193">
          <mxGeometry relative="1" as="geometry">
            <Array as="points">
              <mxPoint y="1770" />
              <mxPoint x="647" y="1770" />
            </Array>
          </mxGeometry>
        </mxCell>
        <mxCell id="Cyv1DPju3obVMaO8v18J-158" value="GroundServicesWorker" style="swimlane;fontStyle=2;align=center;verticalAlign=top;childLayout=stackLayout;horizontal=1;startSize=26;horizontalStack=0;resizeParent=1;resizeLast=0;collapsible=1;marginBottom=0;rounded=0;shadow=0;strokeWidth=1;" vertex="1" parent="WIyWlLk6GJQsqaUBKTNV-1">
          <mxGeometry x="-250" y="1886" width="500" height="138" as="geometry">
            <mxRectangle x="270" y="700" width="160" height="26" as="alternateBounds" />
          </mxGeometry>
        </mxCell>
        <mxCell id="Cyv1DPju3obVMaO8v18J-159" value="- mPerson : std::shared_ptr&lt;Person&gt;" style="text;align=left;verticalAlign=top;spacingLeft=4;spacingRight=4;overflow=hidden;rotatable=0;points=[[0,0.5],[1,0.5]];portConstraint=eastwest;" vertex="1" parent="Cyv1DPju3obVMaO8v18J-158">
          <mxGeometry y="26" width="500" height="26" as="geometry" />
        </mxCell>
        <mxCell id="Cyv1DPju3obVMaO8v18J-160" value="- mExpertise : std::string" style="text;align=left;verticalAlign=top;spacingLeft=4;spacingRight=4;overflow=hidden;rotatable=0;points=[[0,0.5],[1,0.5]];portConstraint=eastwest;" vertex="1" parent="Cyv1DPju3obVMaO8v18J-158">
          <mxGeometry y="52" width="500" height="26" as="geometry" />
        </mxCell>
        <mxCell id="Cyv1DPju3obVMaO8v18J-161" value="" style="line;html=1;strokeWidth=1;align=left;verticalAlign=middle;spacingTop=-1;spacingLeft=3;spacingRight=3;rotatable=0;labelPosition=right;points=[];portConstraint=eastwest;" vertex="1" parent="Cyv1DPju3obVMaO8v18J-158">
          <mxGeometry y="78" width="500" height="8" as="geometry" />
        </mxCell>
        <mxCell id="Cyv1DPju3obVMaO8v18J-162" value="+ const getExpertise() : std::string" style="text;align=left;verticalAlign=top;spacingLeft=4;spacingRight=4;overflow=hidden;rotatable=0;points=[[0,0.5],[1,0.5]];portConstraint=eastwest;" vertex="1" parent="Cyv1DPju3obVMaO8v18J-158">
          <mxGeometry y="86" width="500" height="26" as="geometry" />
        </mxCell>
        <mxCell id="Cyv1DPju3obVMaO8v18J-170" value="+ const getPersonDetails() : const Person*" style="text;align=left;verticalAlign=top;spacingLeft=4;spacingRight=4;overflow=hidden;rotatable=0;points=[[0,0.5],[1,0.5]];portConstraint=eastwest;" vertex="1" parent="Cyv1DPju3obVMaO8v18J-158">
          <mxGeometry y="112" width="500" height="26" as="geometry" />
        </mxCell>
        <mxCell id="Cyv1DPju3obVMaO8v18J-235" style="edgeStyle=orthogonalEdgeStyle;rounded=0;orthogonalLoop=1;jettySize=auto;html=1;entryX=0.554;entryY=1.021;entryDx=0;entryDy=0;entryPerimeter=0;" edge="1" parent="WIyWlLk6GJQsqaUBKTNV-1" source="Cyv1DPju3obVMaO8v18J-163" target="Cyv1DPju3obVMaO8v18J-193">
          <mxGeometry relative="1" as="geometry">
            <Array as="points">
              <mxPoint x="1077" y="1790" />
              <mxPoint x="797" y="1790" />
            </Array>
          </mxGeometry>
        </mxCell>
        <mxCell id="Cyv1DPju3obVMaO8v18J-163" value="MaintenanceWorker" style="swimlane;fontStyle=2;align=center;verticalAlign=top;childLayout=stackLayout;horizontal=1;startSize=26;horizontalStack=0;resizeParent=1;resizeLast=0;collapsible=1;marginBottom=0;rounded=0;shadow=0;strokeWidth=1;" vertex="1" parent="WIyWlLk6GJQsqaUBKTNV-1">
          <mxGeometry x="827" y="1886" width="500" height="164" as="geometry">
            <mxRectangle x="270" y="700" width="160" height="26" as="alternateBounds" />
          </mxGeometry>
        </mxCell>
        <mxCell id="Cyv1DPju3obVMaO8v18J-164" value="- mPerson : std::shared_ptr&lt;Person&gt;" style="text;align=left;verticalAlign=top;spacingLeft=4;spacingRight=4;overflow=hidden;rotatable=0;points=[[0,0.5],[1,0.5]];portConstraint=eastwest;" vertex="1" parent="Cyv1DPju3obVMaO8v18J-163">
          <mxGeometry y="26" width="500" height="26" as="geometry" />
        </mxCell>
        <mxCell id="Cyv1DPju3obVMaO8v18J-165" value="- mLevel : unsigned short" style="text;align=left;verticalAlign=top;spacingLeft=4;spacingRight=4;overflow=hidden;rotatable=0;points=[[0,0.5],[1,0.5]];portConstraint=eastwest;" vertex="1" parent="Cyv1DPju3obVMaO8v18J-163">
          <mxGeometry y="52" width="500" height="26" as="geometry" />
        </mxCell>
        <mxCell id="Cyv1DPju3obVMaO8v18J-168" value="- unsigned int : mExperienceHour" style="text;align=left;verticalAlign=top;spacingLeft=4;spacingRight=4;overflow=hidden;rotatable=0;points=[[0,0.5],[1,0.5]];portConstraint=eastwest;" vertex="1" parent="Cyv1DPju3obVMaO8v18J-163">
          <mxGeometry y="78" width="500" height="26" as="geometry" />
        </mxCell>
        <mxCell id="Cyv1DPju3obVMaO8v18J-166" value="" style="line;html=1;strokeWidth=1;align=left;verticalAlign=middle;spacingTop=-1;spacingLeft=3;spacingRight=3;rotatable=0;labelPosition=right;points=[];portConstraint=eastwest;" vertex="1" parent="Cyv1DPju3obVMaO8v18J-163">
          <mxGeometry y="104" width="500" height="8" as="geometry" />
        </mxCell>
        <mxCell id="Cyv1DPju3obVMaO8v18J-167" value="+ const getLevel() : unsigned short" style="text;align=left;verticalAlign=top;spacingLeft=4;spacingRight=4;overflow=hidden;rotatable=0;points=[[0,0.5],[1,0.5]];portConstraint=eastwest;" vertex="1" parent="Cyv1DPju3obVMaO8v18J-163">
          <mxGeometry y="112" width="500" height="26" as="geometry" />
        </mxCell>
        <mxCell id="Cyv1DPju3obVMaO8v18J-169" value="+ const getPersonDetails() : const Person*" style="text;align=left;verticalAlign=top;spacingLeft=4;spacingRight=4;overflow=hidden;rotatable=0;points=[[0,0.5],[1,0.5]];portConstraint=eastwest;" vertex="1" parent="Cyv1DPju3obVMaO8v18J-163">
          <mxGeometry y="138" width="500" height="26" as="geometry" />
        </mxCell>
        <mxCell id="Cyv1DPju3obVMaO8v18J-234" style="edgeStyle=orthogonalEdgeStyle;rounded=0;orthogonalLoop=1;jettySize=auto;html=1;entryX=0.443;entryY=1.021;entryDx=0;entryDy=0;entryPerimeter=0;" edge="1" parent="WIyWlLk6GJQsqaUBKTNV-1" source="Cyv1DPju3obVMaO8v18J-172" target="Cyv1DPju3obVMaO8v18J-193">
          <mxGeometry relative="1" as="geometry">
            <Array as="points">
              <mxPoint x="540" y="1790" />
              <mxPoint x="741" y="1790" />
            </Array>
          </mxGeometry>
        </mxCell>
        <mxCell id="Cyv1DPju3obVMaO8v18J-172" value="PilotWorker" style="swimlane;fontStyle=2;align=center;verticalAlign=top;childLayout=stackLayout;horizontal=1;startSize=26;horizontalStack=0;resizeParent=1;resizeLast=0;collapsible=1;marginBottom=0;rounded=0;shadow=0;strokeWidth=1;" vertex="1" parent="WIyWlLk6GJQsqaUBKTNV-1">
          <mxGeometry x="290" y="1886" width="500" height="190" as="geometry">
            <mxRectangle x="270" y="700" width="160" height="26" as="alternateBounds" />
          </mxGeometry>
        </mxCell>
        <mxCell id="Cyv1DPju3obVMaO8v18J-173" value="- mPerson : std::shared_ptr&lt;Person&gt;" style="text;align=left;verticalAlign=top;spacingLeft=4;spacingRight=4;overflow=hidden;rotatable=0;points=[[0,0.5],[1,0.5]];portConstraint=eastwest;" vertex="1" parent="Cyv1DPju3obVMaO8v18J-172">
          <mxGeometry y="26" width="500" height="26" as="geometry" />
        </mxCell>
        <mxCell id="Cyv1DPju3obVMaO8v18J-174" value="- mLevel : unsigned short" style="text;align=left;verticalAlign=top;spacingLeft=4;spacingRight=4;overflow=hidden;rotatable=0;points=[[0,0.5],[1,0.5]];portConstraint=eastwest;" vertex="1" parent="Cyv1DPju3obVMaO8v18J-172">
          <mxGeometry y="52" width="500" height="26" as="geometry" />
        </mxCell>
        <mxCell id="Cyv1DPju3obVMaO8v18J-175" value="- mFlightHours : unsigned int " style="text;align=left;verticalAlign=top;spacingLeft=4;spacingRight=4;overflow=hidden;rotatable=0;points=[[0,0.5],[1,0.5]];portConstraint=eastwest;" vertex="1" parent="Cyv1DPju3obVMaO8v18J-172">
          <mxGeometry y="78" width="500" height="26" as="geometry" />
        </mxCell>
        <mxCell id="Cyv1DPju3obVMaO8v18J-176" value="" style="line;html=1;strokeWidth=1;align=left;verticalAlign=middle;spacingTop=-1;spacingLeft=3;spacingRight=3;rotatable=0;labelPosition=right;points=[];portConstraint=eastwest;" vertex="1" parent="Cyv1DPju3obVMaO8v18J-172">
          <mxGeometry y="104" width="500" height="8" as="geometry" />
        </mxCell>
        <mxCell id="Cyv1DPju3obVMaO8v18J-177" value="+ const getLevel() : unsigned short" style="text;align=left;verticalAlign=top;spacingLeft=4;spacingRight=4;overflow=hidden;rotatable=0;points=[[0,0.5],[1,0.5]];portConstraint=eastwest;" vertex="1" parent="Cyv1DPju3obVMaO8v18J-172">
          <mxGeometry y="112" width="500" height="26" as="geometry" />
        </mxCell>
        <mxCell id="Cyv1DPju3obVMaO8v18J-179" value="+ const getFlightHour() : unsigned short" style="text;align=left;verticalAlign=top;spacingLeft=4;spacingRight=4;overflow=hidden;rotatable=0;points=[[0,0.5],[1,0.5]];portConstraint=eastwest;" vertex="1" parent="Cyv1DPju3obVMaO8v18J-172">
          <mxGeometry y="138" width="500" height="26" as="geometry" />
        </mxCell>
        <mxCell id="Cyv1DPju3obVMaO8v18J-178" value="+ const getPersonDetails() : const Person*" style="text;align=left;verticalAlign=top;spacingLeft=4;spacingRight=4;overflow=hidden;rotatable=0;points=[[0,0.5],[1,0.5]];portConstraint=eastwest;" vertex="1" parent="Cyv1DPju3obVMaO8v18J-172">
          <mxGeometry y="164" width="500" height="26" as="geometry" />
        </mxCell>
        <mxCell id="Cyv1DPju3obVMaO8v18J-180" value="Person" style="swimlane;fontStyle=2;align=center;verticalAlign=top;childLayout=stackLayout;horizontal=1;startSize=26;horizontalStack=0;resizeParent=1;resizeLast=0;collapsible=1;marginBottom=0;rounded=0;shadow=0;strokeWidth=1;" vertex="1" parent="WIyWlLk6GJQsqaUBKTNV-1">
          <mxGeometry x="520" y="1270" width="500" height="346" as="geometry">
            <mxRectangle x="270" y="700" width="160" height="26" as="alternateBounds" />
          </mxGeometry>
        </mxCell>
        <mxCell id="Cyv1DPju3obVMaO8v18J-181" value="- mGivenName : std::string" style="text;align=left;verticalAlign=top;spacingLeft=4;spacingRight=4;overflow=hidden;rotatable=0;points=[[0,0.5],[1,0.5]];portConstraint=eastwest;" vertex="1" parent="Cyv1DPju3obVMaO8v18J-180">
          <mxGeometry y="26" width="500" height="26" as="geometry" />
        </mxCell>
        <mxCell id="Cyv1DPju3obVMaO8v18J-182" value="- mMiddleName : std::string" style="text;align=left;verticalAlign=top;spacingLeft=4;spacingRight=4;overflow=hidden;rotatable=0;points=[[0,0.5],[1,0.5]];portConstraint=eastwest;" vertex="1" parent="Cyv1DPju3obVMaO8v18J-180">
          <mxGeometry y="52" width="500" height="26" as="geometry" />
        </mxCell>
        <mxCell id="Cyv1DPju3obVMaO8v18J-183" value="- mSurname : std::string" style="text;align=left;verticalAlign=top;spacingLeft=4;spacingRight=4;overflow=hidden;rotatable=0;points=[[0,0.5],[1,0.5]];portConstraint=eastwest;" vertex="1" parent="Cyv1DPju3obVMaO8v18J-180">
          <mxGeometry y="78" width="500" height="26" as="geometry" />
        </mxCell>
        <mxCell id="Cyv1DPju3obVMaO8v18J-188" value="- mBirthday : std::time_t" style="text;align=left;verticalAlign=top;spacingLeft=4;spacingRight=4;overflow=hidden;rotatable=0;points=[[0,0.5],[1,0.5]];portConstraint=eastwest;" vertex="1" parent="Cyv1DPju3obVMaO8v18J-180">
          <mxGeometry y="104" width="500" height="26" as="geometry" />
        </mxCell>
        <mxCell id="Cyv1DPju3obVMaO8v18J-189" value="- mDocuments : std::vector&lt;Document*&gt;" style="text;align=left;verticalAlign=top;spacingLeft=4;spacingRight=4;overflow=hidden;rotatable=0;points=[[0,0.5],[1,0.5]];portConstraint=eastwest;" vertex="1" parent="Cyv1DPju3obVMaO8v18J-180">
          <mxGeometry y="130" width="500" height="26" as="geometry" />
        </mxCell>
        <mxCell id="Cyv1DPju3obVMaO8v18J-184" value="" style="line;html=1;strokeWidth=1;align=left;verticalAlign=middle;spacingTop=-1;spacingLeft=3;spacingRight=3;rotatable=0;labelPosition=right;points=[];portConstraint=eastwest;" vertex="1" parent="Cyv1DPju3obVMaO8v18J-180">
          <mxGeometry y="156" width="500" height="8" as="geometry" />
        </mxCell>
        <mxCell id="Cyv1DPju3obVMaO8v18J-185" value="+ const getGivenName() : std::string" style="text;align=left;verticalAlign=top;spacingLeft=4;spacingRight=4;overflow=hidden;rotatable=0;points=[[0,0.5],[1,0.5]];portConstraint=eastwest;" vertex="1" parent="Cyv1DPju3obVMaO8v18J-180">
          <mxGeometry y="164" width="500" height="26" as="geometry" />
        </mxCell>
        <mxCell id="Cyv1DPju3obVMaO8v18J-186" value="+ const getMiddleName() : std::string" style="text;align=left;verticalAlign=top;spacingLeft=4;spacingRight=4;overflow=hidden;rotatable=0;points=[[0,0.5],[1,0.5]];portConstraint=eastwest;" vertex="1" parent="Cyv1DPju3obVMaO8v18J-180">
          <mxGeometry y="190" width="500" height="26" as="geometry" />
        </mxCell>
        <mxCell id="Cyv1DPju3obVMaO8v18J-187" value="+ const getSurname() : std::string" style="text;align=left;verticalAlign=top;spacingLeft=4;spacingRight=4;overflow=hidden;rotatable=0;points=[[0,0.5],[1,0.5]];portConstraint=eastwest;" vertex="1" parent="Cyv1DPju3obVMaO8v18J-180">
          <mxGeometry y="216" width="500" height="26" as="geometry" />
        </mxCell>
        <mxCell id="Cyv1DPju3obVMaO8v18J-190" value="+ const getBirthday() : std::time_t" style="text;align=left;verticalAlign=top;spacingLeft=4;spacingRight=4;overflow=hidden;rotatable=0;points=[[0,0.5],[1,0.5]];portConstraint=eastwest;" vertex="1" parent="Cyv1DPju3obVMaO8v18J-180">
          <mxGeometry y="242" width="500" height="26" as="geometry" />
        </mxCell>
        <mxCell id="Cyv1DPju3obVMaO8v18J-191" value="+ const getAge() : double" style="text;align=left;verticalAlign=top;spacingLeft=4;spacingRight=4;overflow=hidden;rotatable=0;points=[[0,0.5],[1,0.5]];portConstraint=eastwest;" vertex="1" parent="Cyv1DPju3obVMaO8v18J-180">
          <mxGeometry y="268" width="500" height="26" as="geometry" />
        </mxCell>
        <mxCell id="Cyv1DPju3obVMaO8v18J-192" value="+ const getDocuments() : const std::vector&lt;Document*&gt;" style="text;align=left;verticalAlign=top;spacingLeft=4;spacingRight=4;overflow=hidden;rotatable=0;points=[[0,0.5],[1,0.5]];portConstraint=eastwest;" vertex="1" parent="Cyv1DPju3obVMaO8v18J-180">
          <mxGeometry y="294" width="500" height="26" as="geometry" />
        </mxCell>
        <mxCell id="Cyv1DPju3obVMaO8v18J-193" value="+ addDocument(Document*) : void" style="text;align=left;verticalAlign=top;spacingLeft=4;spacingRight=4;overflow=hidden;rotatable=0;points=[[0,0.5],[1,0.5]];portConstraint=eastwest;" vertex="1" parent="Cyv1DPju3obVMaO8v18J-180">
          <mxGeometry y="320" width="500" height="26" as="geometry" />
        </mxCell>
        <mxCell id="Cyv1DPju3obVMaO8v18J-194" value="Document" style="swimlane;fontStyle=2;align=center;verticalAlign=top;childLayout=stackLayout;horizontal=1;startSize=26;horizontalStack=0;resizeParent=1;resizeLast=0;collapsible=1;marginBottom=0;rounded=0;shadow=0;strokeWidth=1;" vertex="1" parent="WIyWlLk6GJQsqaUBKTNV-1">
          <mxGeometry x="1610" y="1130" width="500" height="424" as="geometry">
            <mxRectangle x="270" y="700" width="160" height="26" as="alternateBounds" />
          </mxGeometry>
        </mxCell>
        <mxCell id="Cyv1DPju3obVMaO8v18J-195" value="- mId : unsigned long" style="text;align=left;verticalAlign=top;spacingLeft=4;spacingRight=4;overflow=hidden;rotatable=0;points=[[0,0.5],[1,0.5]];portConstraint=eastwest;" vertex="1" parent="Cyv1DPju3obVMaO8v18J-194">
          <mxGeometry y="26" width="500" height="26" as="geometry" />
        </mxCell>
        <mxCell id="Cyv1DPju3obVMaO8v18J-196" value="- mDocumentName : std::string" style="text;align=left;verticalAlign=top;spacingLeft=4;spacingRight=4;overflow=hidden;rotatable=0;points=[[0,0.5],[1,0.5]];portConstraint=eastwest;" vertex="1" parent="Cyv1DPju3obVMaO8v18J-194">
          <mxGeometry y="52" width="500" height="26" as="geometry" />
        </mxCell>
        <mxCell id="Cyv1DPju3obVMaO8v18J-197" value="- mGivenCountry : Country" style="text;align=left;verticalAlign=top;spacingLeft=4;spacingRight=4;overflow=hidden;rotatable=0;points=[[0,0.5],[1,0.5]];portConstraint=eastwest;" vertex="1" parent="Cyv1DPju3obVMaO8v18J-194">
          <mxGeometry y="78" width="500" height="26" as="geometry" />
        </mxCell>
        <mxCell id="Cyv1DPju3obVMaO8v18J-198" value="- mValidFrom : std::time_t" style="text;align=left;verticalAlign=top;spacingLeft=4;spacingRight=4;overflow=hidden;rotatable=0;points=[[0,0.5],[1,0.5]];portConstraint=eastwest;" vertex="1" parent="Cyv1DPju3obVMaO8v18J-194">
          <mxGeometry y="104" width="500" height="26" as="geometry" />
        </mxCell>
        <mxCell id="Cyv1DPju3obVMaO8v18J-208" value="- mValidTo : std::optional&lt;std::time_t&gt;" style="text;align=left;verticalAlign=top;spacingLeft=4;spacingRight=4;overflow=hidden;rotatable=0;points=[[0,0.5],[1,0.5]];portConstraint=eastwest;" vertex="1" parent="Cyv1DPju3obVMaO8v18J-194">
          <mxGeometry y="130" width="500" height="26" as="geometry" />
        </mxCell>
        <mxCell id="Cyv1DPju3obVMaO8v18J-199" value="- pDocumentPdfByteArray : const unsigned char*" style="text;align=left;verticalAlign=top;spacingLeft=4;spacingRight=4;overflow=hidden;rotatable=0;points=[[0,0.5],[1,0.5]];portConstraint=eastwest;" vertex="1" parent="Cyv1DPju3obVMaO8v18J-194">
          <mxGeometry y="156" width="500" height="26" as="geometry" />
        </mxCell>
        <mxCell id="Cyv1DPju3obVMaO8v18J-209" value="- mLength : unsigned int" style="text;align=left;verticalAlign=top;spacingLeft=4;spacingRight=4;overflow=hidden;rotatable=0;points=[[0,0.5],[1,0.5]];portConstraint=eastwest;" vertex="1" parent="Cyv1DPju3obVMaO8v18J-194">
          <mxGeometry y="182" width="500" height="26" as="geometry" />
        </mxCell>
        <mxCell id="Cyv1DPju3obVMaO8v18J-200" value="" style="line;html=1;strokeWidth=1;align=left;verticalAlign=middle;spacingTop=-1;spacingLeft=3;spacingRight=3;rotatable=0;labelPosition=right;points=[];portConstraint=eastwest;" vertex="1" parent="Cyv1DPju3obVMaO8v18J-194">
          <mxGeometry y="208" width="500" height="8" as="geometry" />
        </mxCell>
        <mxCell id="Cyv1DPju3obVMaO8v18J-201" value="+ const getId() : unsigned long" style="text;align=left;verticalAlign=top;spacingLeft=4;spacingRight=4;overflow=hidden;rotatable=0;points=[[0,0.5],[1,0.5]];portConstraint=eastwest;" vertex="1" parent="Cyv1DPju3obVMaO8v18J-194">
          <mxGeometry y="216" width="500" height="26" as="geometry" />
        </mxCell>
        <mxCell id="Cyv1DPju3obVMaO8v18J-202" value="+ const getDocumentType() : std::string" style="text;align=left;verticalAlign=top;spacingLeft=4;spacingRight=4;overflow=hidden;rotatable=0;points=[[0,0.5],[1,0.5]];portConstraint=eastwest;" vertex="1" parent="Cyv1DPju3obVMaO8v18J-194">
          <mxGeometry y="242" width="500" height="26" as="geometry" />
        </mxCell>
        <mxCell id="Cyv1DPju3obVMaO8v18J-203" value="+ const getValidFrom() : std::time_t" style="text;align=left;verticalAlign=top;spacingLeft=4;spacingRight=4;overflow=hidden;rotatable=0;points=[[0,0.5],[1,0.5]];portConstraint=eastwest;" vertex="1" parent="Cyv1DPju3obVMaO8v18J-194">
          <mxGeometry y="268" width="500" height="26" as="geometry" />
        </mxCell>
        <mxCell id="Cyv1DPju3obVMaO8v18J-204" value="+ const getValidTo() : std::time_t" style="text;align=left;verticalAlign=top;spacingLeft=4;spacingRight=4;overflow=hidden;rotatable=0;points=[[0,0.5],[1,0.5]];portConstraint=eastwest;" vertex="1" parent="Cyv1DPju3obVMaO8v18J-194">
          <mxGeometry y="294" width="500" height="26" as="geometry" />
        </mxCell>
        <mxCell id="Cyv1DPju3obVMaO8v18J-205" value="+ const isValid() : bool" style="text;align=left;verticalAlign=top;spacingLeft=4;spacingRight=4;overflow=hidden;rotatable=0;points=[[0,0.5],[1,0.5]];portConstraint=eastwest;" vertex="1" parent="Cyv1DPju3obVMaO8v18J-194">
          <mxGeometry y="320" width="500" height="26" as="geometry" />
        </mxCell>
        <mxCell id="Cyv1DPju3obVMaO8v18J-206" value="+ const isValid(std::time_t) : bool" style="text;align=left;verticalAlign=top;spacingLeft=4;spacingRight=4;overflow=hidden;rotatable=0;points=[[0,0.5],[1,0.5]];portConstraint=eastwest;" vertex="1" parent="Cyv1DPju3obVMaO8v18J-194">
          <mxGeometry y="346" width="500" height="26" as="geometry" />
        </mxCell>
        <mxCell id="Cyv1DPju3obVMaO8v18J-207" value="+ loadDocumentFromDb() : void" style="text;align=left;verticalAlign=top;spacingLeft=4;spacingRight=4;overflow=hidden;rotatable=0;points=[[0,0.5],[1,0.5]];portConstraint=eastwest;" vertex="1" parent="Cyv1DPju3obVMaO8v18J-194">
          <mxGeometry y="372" width="500" height="26" as="geometry" />
        </mxCell>
        <mxCell id="Cyv1DPju3obVMaO8v18J-210" value="+ getDocument(const unsigned char *&amp;, unsigned int&amp;) : bool" style="text;align=left;verticalAlign=top;spacingLeft=4;spacingRight=4;overflow=hidden;rotatable=0;points=[[0,0.5],[1,0.5]];portConstraint=eastwest;" vertex="1" parent="Cyv1DPju3obVMaO8v18J-194">
          <mxGeometry y="398" width="500" height="26" as="geometry" />
        </mxCell>
        <mxCell id="Cyv1DPju3obVMaO8v18J-211" value="City" style="swimlane;fontStyle=2;align=center;verticalAlign=top;childLayout=stackLayout;horizontal=1;startSize=26;horizontalStack=0;resizeParent=1;resizeLast=0;collapsible=1;marginBottom=0;rounded=0;shadow=0;strokeWidth=1;" vertex="1" parent="WIyWlLk6GJQsqaUBKTNV-1">
          <mxGeometry x="2440" y="720" width="500" height="220" as="geometry">
            <mxRectangle x="270" y="700" width="160" height="26" as="alternateBounds" />
          </mxGeometry>
        </mxCell>
        <mxCell id="Cyv1DPju3obVMaO8v18J-212" value="- mCountry : Country" style="text;align=left;verticalAlign=top;spacingLeft=4;spacingRight=4;overflow=hidden;rotatable=0;points=[[0,0.5],[1,0.5]];portConstraint=eastwest;" vertex="1" parent="Cyv1DPju3obVMaO8v18J-211">
          <mxGeometry y="26" width="500" height="26" as="geometry" />
        </mxCell>
        <mxCell id="Cyv1DPju3obVMaO8v18J-213" value="- mCityName : std::string" style="text;align=left;verticalAlign=top;spacingLeft=4;spacingRight=4;overflow=hidden;rotatable=0;points=[[0,0.5],[1,0.5]];portConstraint=eastwest;" vertex="1" parent="Cyv1DPju3obVMaO8v18J-211">
          <mxGeometry y="52" width="500" height="26" as="geometry" />
        </mxCell>
        <mxCell id="Cyv1DPju3obVMaO8v18J-214" value="- mCoordinate : std::pair&lt;double,double&gt;" style="text;align=left;verticalAlign=top;spacingLeft=4;spacingRight=4;overflow=hidden;rotatable=0;points=[[0,0.5],[1,0.5]];portConstraint=eastwest;" vertex="1" parent="Cyv1DPju3obVMaO8v18J-211">
          <mxGeometry y="78" width="500" height="26" as="geometry" />
        </mxCell>
        <mxCell id="Cyv1DPju3obVMaO8v18J-215" value="- mAltitude : double" style="text;align=left;verticalAlign=top;spacingLeft=4;spacingRight=4;overflow=hidden;rotatable=0;points=[[0,0.5],[1,0.5]];portConstraint=eastwest;" vertex="1" parent="Cyv1DPju3obVMaO8v18J-211">
          <mxGeometry y="104" width="500" height="26" as="geometry" />
        </mxCell>
        <mxCell id="Cyv1DPju3obVMaO8v18J-216" value="" style="line;html=1;strokeWidth=1;align=left;verticalAlign=middle;spacingTop=-1;spacingLeft=3;spacingRight=3;rotatable=0;labelPosition=right;points=[];portConstraint=eastwest;" vertex="1" parent="Cyv1DPju3obVMaO8v18J-211">
          <mxGeometry y="130" width="500" height="8" as="geometry" />
        </mxCell>
        <mxCell id="Cyv1DPju3obVMaO8v18J-217" value="+ const getCityName() : std::string" style="text;align=left;verticalAlign=top;spacingLeft=4;spacingRight=4;overflow=hidden;rotatable=0;points=[[0,0.5],[1,0.5]];portConstraint=eastwest;" vertex="1" parent="Cyv1DPju3obVMaO8v18J-211">
          <mxGeometry y="138" width="500" height="26" as="geometry" />
        </mxCell>
        <mxCell id="Cyv1DPju3obVMaO8v18J-218" value="+ const getCoordinate() : const std::pair&lt;double, double&gt;" style="text;align=left;verticalAlign=top;spacingLeft=4;spacingRight=4;overflow=hidden;rotatable=0;points=[[0,0.5],[1,0.5]];portConstraint=eastwest;" vertex="1" parent="Cyv1DPju3obVMaO8v18J-211">
          <mxGeometry y="164" width="500" height="26" as="geometry" />
        </mxCell>
        <mxCell id="Cyv1DPju3obVMaO8v18J-219" value="+ const getAltitude() : double" style="text;align=left;verticalAlign=top;spacingLeft=4;spacingRight=4;overflow=hidden;rotatable=0;points=[[0,0.5],[1,0.5]];portConstraint=eastwest;" vertex="1" parent="Cyv1DPju3obVMaO8v18J-211">
          <mxGeometry y="190" width="500" height="26" as="geometry" />
        </mxCell>
        <mxCell id="Cyv1DPju3obVMaO8v18J-239" style="edgeStyle=orthogonalEdgeStyle;rounded=0;orthogonalLoop=1;jettySize=auto;html=1;entryX=0.5;entryY=1;entryDx=0;entryDy=0;" edge="1" parent="WIyWlLk6GJQsqaUBKTNV-1" source="Cyv1DPju3obVMaO8v18J-220" target="Cyv1DPju3obVMaO8v18J-211">
          <mxGeometry relative="1" as="geometry" />
        </mxCell>
        <mxCell id="Cyv1DPju3obVMaO8v18J-220" value="Country" style="swimlane;fontStyle=2;align=center;verticalAlign=top;childLayout=stackLayout;horizontal=1;startSize=26;horizontalStack=0;resizeParent=1;resizeLast=0;collapsible=1;marginBottom=0;rounded=0;shadow=0;strokeWidth=1;" vertex="1" parent="WIyWlLk6GJQsqaUBKTNV-1">
          <mxGeometry x="2440" y="1079" width="500" height="90" as="geometry">
            <mxRectangle x="270" y="700" width="160" height="26" as="alternateBounds" />
          </mxGeometry>
        </mxCell>
        <mxCell id="Cyv1DPju3obVMaO8v18J-221" value="- mCountryName : std::string" style="text;align=left;verticalAlign=top;spacingLeft=4;spacingRight=4;overflow=hidden;rotatable=0;points=[[0,0.5],[1,0.5]];portConstraint=eastwest;" vertex="1" parent="Cyv1DPju3obVMaO8v18J-220">
          <mxGeometry y="26" width="500" height="26" as="geometry" />
        </mxCell>
        <mxCell id="Cyv1DPju3obVMaO8v18J-225" value="" style="line;html=1;strokeWidth=1;align=left;verticalAlign=middle;spacingTop=-1;spacingLeft=3;spacingRight=3;rotatable=0;labelPosition=right;points=[];portConstraint=eastwest;" vertex="1" parent="Cyv1DPju3obVMaO8v18J-220">
          <mxGeometry y="52" width="500" height="8" as="geometry" />
        </mxCell>
        <mxCell id="Cyv1DPju3obVMaO8v18J-226" value="+ const getCountryName() : std::string" style="text;align=left;verticalAlign=top;spacingLeft=4;spacingRight=4;overflow=hidden;rotatable=0;points=[[0,0.5],[1,0.5]];portConstraint=eastwest;" vertex="1" parent="Cyv1DPju3obVMaO8v18J-220">
          <mxGeometry y="60" width="500" height="26" as="geometry" />
        </mxCell>
        <mxCell id="Cyv1DPju3obVMaO8v18J-237" style="edgeStyle=orthogonalEdgeStyle;rounded=0;orthogonalLoop=1;jettySize=auto;html=1;entryX=0.5;entryY=0;entryDx=0;entryDy=0;" edge="1" parent="WIyWlLk6GJQsqaUBKTNV-1" source="Cyv1DPju3obVMaO8v18J-192" target="Cyv1DPju3obVMaO8v18J-194">
          <mxGeometry relative="1" as="geometry" />
        </mxCell>
        <mxCell id="Cyv1DPju3obVMaO8v18J-238" style="edgeStyle=orthogonalEdgeStyle;rounded=0;orthogonalLoop=1;jettySize=auto;html=1;entryX=0.003;entryY=0.163;entryDx=0;entryDy=0;entryPerimeter=0;" edge="1" parent="WIyWlLk6GJQsqaUBKTNV-1" source="Cyv1DPju3obVMaO8v18J-197" target="Cyv1DPju3obVMaO8v18J-220">
          <mxGeometry relative="1" as="geometry">
            <Array as="points">
              <mxPoint x="2320" y="1221" />
              <mxPoint x="2320" y="1094" />
            </Array>
          </mxGeometry>
        </mxCell>
        <mxCell id="Cyv1DPju3obVMaO8v18J-241" style="edgeStyle=orthogonalEdgeStyle;rounded=0;orthogonalLoop=1;jettySize=auto;html=1;entryX=1;entryY=0.5;entryDx=0;entryDy=0;" edge="1" parent="WIyWlLk6GJQsqaUBKTNV-1" source="Cyv1DPju3obVMaO8v18J-1" target="Cyv1DPju3obVMaO8v18J-213">
          <mxGeometry relative="1" as="geometry" />
        </mxCell>
        <mxCell id="Cyv1DPju3obVMaO8v18J-242" style="edgeStyle=orthogonalEdgeStyle;rounded=0;orthogonalLoop=1;jettySize=auto;html=1;entryX=-0.001;entryY=0.109;entryDx=0;entryDy=0;entryPerimeter=0;" edge="1" parent="WIyWlLk6GJQsqaUBKTNV-1" source="Cyv1DPju3obVMaO8v18J-123" target="Cyv1DPju3obVMaO8v18J-68">
          <mxGeometry relative="1" as="geometry" />
        </mxCell>
        <mxCell id="Cyv1DPju3obVMaO8v18J-247" style="edgeStyle=orthogonalEdgeStyle;rounded=0;orthogonalLoop=1;jettySize=auto;html=1;entryX=0.001;entryY=0.13;entryDx=0;entryDy=0;entryPerimeter=0;" edge="1" parent="WIyWlLk6GJQsqaUBKTNV-1" source="Cyv1DPju3obVMaO8v18J-244" target="Cyv1DPju3obVMaO8v18J-41">
          <mxGeometry relative="1" as="geometry" />
        </mxCell>
        <mxCell id="Cyv1DPju3obVMaO8v18J-249" style="edgeStyle=orthogonalEdgeStyle;rounded=0;orthogonalLoop=1;jettySize=auto;html=1;entryX=0.005;entryY=0.172;entryDx=0;entryDy=0;entryPerimeter=0;" edge="1" parent="WIyWlLk6GJQsqaUBKTNV-1" source="Cyv1DPju3obVMaO8v18J-59" target="Cyv1DPju3obVMaO8v18J-80">
          <mxGeometry relative="1" as="geometry" />
        </mxCell>
        <mxCell id="Cyv1DPju3obVMaO8v18J-250" style="edgeStyle=orthogonalEdgeStyle;rounded=0;orthogonalLoop=1;jettySize=auto;html=1;entryX=0.001;entryY=0.04;entryDx=0;entryDy=0;entryPerimeter=0;" edge="1" parent="WIyWlLk6GJQsqaUBKTNV-1" source="Cyv1DPju3obVMaO8v18J-122" target="Cyv1DPju3obVMaO8v18J-54">
          <mxGeometry relative="1" as="geometry" />
        </mxCell>
        <mxCell id="Cyv1DPju3obVMaO8v18J-253" style="edgeStyle=orthogonalEdgeStyle;rounded=0;orthogonalLoop=1;jettySize=auto;html=1;entryX=0.5;entryY=0;entryDx=0;entryDy=0;" edge="1" parent="WIyWlLk6GJQsqaUBKTNV-1" source="Cyv1DPju3obVMaO8v18J-107" target="Cyv1DPju3obVMaO8v18J-86">
          <mxGeometry relative="1" as="geometry" />
        </mxCell>
        <mxCell id="Cyv1DPju3obVMaO8v18J-254" style="edgeStyle=orthogonalEdgeStyle;rounded=0;orthogonalLoop=1;jettySize=auto;html=1;entryX=0.001;entryY=0.079;entryDx=0;entryDy=0;entryPerimeter=0;" edge="1" parent="WIyWlLk6GJQsqaUBKTNV-1" source="Cyv1DPju3obVMaO8v18J-10" target="Cyv1DPju3obVMaO8v18J-28">
          <mxGeometry relative="1" as="geometry" />
        </mxCell>
      </root>
    </mxGraphModel>
  </diagram>
</mxfile>
